# xmcd
#
# Track frame offsets: 
#        150
#        15062
#        28530
#        46792
#        61175
#        71682
#        86857
#        99755
#        117367
#        131187
#        148797
#        163192
#        178112
#        197310
#        215487
#
# Disc length: 2969 seconds
#
# Revision: 2
# Processed by: cddbd v1.5.1PL2 Copyright (c) Steve Scherf et al.
# Submitted via: ExactAudioCopy v0.95b3
#
DISCID=c90b970f
DTITLE=Mark Chesnutt - Savin' The Honky Tonk
DYEAR=2004
DGENRE=Country
TTITLE0=Somebody Save The Honky Tonks
TTITLE1=I'm A Saint
TTITLE2=The Lord Loves The Drinkin' Man
TTITLE3=Would These Arms Be In Your Way
TTITLE4=You Can't Do Me This Way
TTITLE5=A Hard Secret To Keep
TTITLE6=What Are We Doing In Love
TTITLE7=Don't Ruin It For The Rest Of Us
TTITLE8=Mama's House
TTITLE9=Since You Ain't Home
TTITLE10=Think Like A Woman
TTITLE11=Then We All Can Go Home
TTITLE12=Beer, Bait, And Ammo
TTITLE13=My Best Drinkin'
TTITLE14=Honky Tonk Heroes
EXTD=YEAR: 2004
EXTT0=
EXTT1=
EXTT2=
EXTT3=
EXTT4=
EXTT5=
EXTT6=
EXTT7=
EXTT8=
EXTT9=
EXTT10=
EXTT11=
EXTT12=
EXTT13=
EXTT14=
PLAYORDER=
